<mxfile host="app.diagrams.net" agent="Mozilla/5.0 (Macintosh; Intel Mac OS X 10_15_7) AppleWebKit/537.36 (KHTML, like Gecko) Chrome/128.0.0.0 Safari/537.36" version="24.7.7">
  <diagram name="第 1 页" id="gFlguENXiU12kpQLrxRx">
    <mxGraphModel dx="2549" dy="568" grid="1" gridSize="10" guides="1" tooltips="1" connect="1" arrows="1" fold="1" page="1" pageScale="1" pageWidth="827" pageHeight="1169" math="0" shadow="0">
      <root>
        <mxCell id="0" />
        <mxCell id="1" parent="0" />
        <mxCell id="cDxK8CzM8uQFrHm3YZL3-1" value="Weather subseason to seanson&lt;div&gt;&lt;br&gt;&lt;/div&gt;" style="text;html=1;align=center;verticalAlign=middle;resizable=0;points=[];autosize=1;strokeColor=none;fillColor=none;" vertex="1" parent="1">
          <mxGeometry x="-1640" y="13" width="190" height="40" as="geometry" />
        </mxCell>
        <mxCell id="cDxK8CzM8uQFrHm3YZL3-2" value="数据集" style="whiteSpace=wrap;html=1;" vertex="1" parent="1">
          <mxGeometry x="-1630" y="100" width="80" height="40" as="geometry" />
        </mxCell>
        <mxCell id="cDxK8CzM8uQFrHm3YZL3-3" value="" style="endArrow=none;html=1;rounded=0;exitX=1;exitY=0.5;exitDx=0;exitDy=0;" edge="1" parent="1" source="cDxK8CzM8uQFrHm3YZL3-2">
          <mxGeometry width="50" height="50" relative="1" as="geometry">
            <mxPoint x="-1250" y="240" as="sourcePoint" />
            <mxPoint x="-860" y="120" as="targetPoint" />
          </mxGeometry>
        </mxCell>
        <mxCell id="cDxK8CzM8uQFrHm3YZL3-4" value="" style="endArrow=none;html=1;rounded=0;" edge="1" parent="1">
          <mxGeometry width="50" height="50" relative="1" as="geometry">
            <mxPoint x="-1440" y="170" as="sourcePoint" />
            <mxPoint x="-1480" y="120" as="targetPoint" />
          </mxGeometry>
        </mxCell>
        <mxCell id="cDxK8CzM8uQFrHm3YZL3-5" value="&lt;span style=&quot;color: rgb(40, 121, 22); font-family: &amp;quot;Open Sans&amp;quot;, &amp;quot;Lucida Grande&amp;quot;, &amp;quot;Helvetica Neue&amp;quot;, Helvetica, Arial, sans-serif; font-size: 17.5px; font-style: normal; font-variant-ligatures: normal; font-variant-caps: normal; font-weight: 600; letter-spacing: normal; orphans: 2; text-align: left; text-indent: 0px; text-transform: none; widows: 2; word-spacing: 0px; -webkit-text-stroke-width: 0px; white-space: normal; background-color: rgb(238, 255, 232); text-decoration-thickness: initial; text-decoration-style: initial; text-decoration-color: initial; display: inline !important; float: none;&quot;&gt;SubseasonalClimateUSA&lt;/span&gt;&lt;div&gt;&lt;span style=&quot;color: rgb(40, 121, 22); font-family: &amp;quot;Open Sans&amp;quot;, &amp;quot;Lucida Grande&amp;quot;, &amp;quot;Helvetica Neue&amp;quot;, Helvetica, Arial, sans-serif; font-size: 17.5px; font-style: normal; font-variant-ligatures: normal; font-variant-caps: normal; font-weight: 600; letter-spacing: normal; orphans: 2; text-align: left; text-indent: 0px; text-transform: none; widows: 2; word-spacing: 0px; -webkit-text-stroke-width: 0px; white-space: normal; background-color: rgb(238, 255, 232); text-decoration-thickness: initial; text-decoration-style: initial; text-decoration-color: initial; display: inline !important; float: none;&quot;&gt;&lt;span style=&quot;color: rgb(51, 51, 51); font-size: 11.9px; font-weight: 400; background-color: rgb(255, 255, 255);&quot;&gt;2024 年 1 月 16 日&lt;/span&gt;&lt;br&gt;&lt;/span&gt;&lt;/div&gt;" style="text;whiteSpace=wrap;html=1;" vertex="1" parent="1">
          <mxGeometry x="-1540" y="170" width="240" height="50" as="geometry" />
        </mxCell>
      </root>
    </mxGraphModel>
  </diagram>
</mxfile>
